<svg width="100" height="100" viewBox="0 0 100 100" xmlns="http://www.w3.org/2000/svg" role="img" aria-label="Milwaukee Brewers">
  <circle cx="50" cy="50" r="47" fill="#ffc52f"/>
  <circle cx="50" cy="50" r="41" fill="#12284b"/>
  <circle cx="50" cy="50" r="30" fill="#f7f3df"/>
  <path d="M35 22c-7 0-13 6-13 14v25c0 16 12 27 28 27s28-11 28-27V36c0-8-6-14-13-14-4 0-8 2-10 5-3-3-7-5-12-5h-8z" fill="#12284b"/>
  <path d="M37 29c-5 0-8 4-8 9v23c0 12 9 20 21 20s21-8 21-20V38c0-5-3-9-8-9-4 0-7 3-8 7l-2 9-2-9c-1-4-4-7-9-7h-5z" fill="#ffc52f"/>
  <path d="M36 35c-2 0-4 2-4 5v21c0 10 7 16 18 16s18-6 18-16V40c0-3-2-5-4-5s-4 2-5 6l-3 15h-6l-3-15c-1-4-4-6-7-6h-4z" fill="#12284b"/>
  <circle cx="50" cy="58" r="14" fill="#f7f3df"/>
  <path d="M43 47c-3 3-5 7-5 11s2 8 5 11M57 47c3 3 5 7 5 11s-2 8-5 11" fill="none" stroke="#c8102e" stroke-width="2" stroke-linecap="round"/>
  <path d="M25 70c6 13 19 20 34 17 12-2 21-11 23-23-6 11-17 18-32 18-11 0-20-4-25-12z" fill="#12284b"/>
</svg>
